<svg width="187" height="258" viewBox="212 118 187 258" xmlns="http://www.w3.org/2000/svg" xmlns:xlink="http://www.w3.org/1999/xlink" overflow="hidden"><defs></defs><g stroke="#000000" stroke-linecap="square" stroke-linejoin="bevel" fill="none" fill-rule="evenodd"><g stroke-opacity="0.00392157" font-family="MS Shell Dlg 2" font-weight="400" font-size="1.33333"><text stroke="none" fill="#000000" fill-opacity="0.00392157" font-size="1.33333" xml:space="preserve" x="212" y="123">FXID{35ce3b66-ca5b-4c62-8e4a-fd954b5d7aff}/FXID</text><text stroke="none" fill="#000000" fill-opacity="0.00392157" font-size="1.33333" xml:space="preserve" x="212" y="128">FXPRODUCTFX Draw/FXPRODUCT</text></g><g stroke="#0000FF" stroke-width="4" stroke-linecap="round" fill="#0000FF" font-family="Times New Roman" font-weight="400" font-size="16"><path d="M220.003 351.79 224.757 367.537 233.39 353.536 220.003 351.79"/></g><g stroke="#0000FF" stroke-width="4" stroke-linecap="round" fill="#0000FF" font-family="Times New Roman" font-weight="400" font-size="16"><path d="M390.483 142.025 385.177 126.456 377.043 140.752 390.483 142.025"/></g><g stroke="#0000FF" stroke-width="4" fill="#0000FF" font-family="Times New Roman" font-weight="400" font-size="16"><path d="M224.757 367.537 225.299 363.18 225.744 359.671 226.188 356.217 226.632 352.818 227.077 349.473 227.521 346.183 227.965 342.947 228.41 339.765 228.854 336.636 229.298 333.56 229.743 330.537 230.187 327.566 230.631 324.647 231.076 321.78 231.52 318.964 231.964 316.2 232.409 313.486 232.853 310.822 233.297 308.208 233.741 305.644 234.186 303.13 234.63 300.664 235.074 298.248 235.519 295.879 235.963 293.559 236.407 291.287 236.852 289.062 237.296 286.883 237.74 284.752 238.185 282.667 238.629 280.628 239.073 278.635 239.518 276.688 239.962 274.785 240.406 272.927 240.851 271.114 241.295 269.344 241.739 267.619 242.184 265.937 242.628 264.298 243.072 262.702 243.517 261.148 243.961 259.636 244.405 258.166 244.85 256.738 245.294 255.35 245.738 254.004 246.183 252.698 246.627 251.432 247.071 250.205 247.516 249.019 247.96 247.871 248.404 246.762 248.849 245.692 249.293 244.66 249.737 243.665 250.182 242.709 250.626 241.789 251.07 240.906 251.515 240.059 251.959 239.249 252.403 238.475 252.848 237.736 253.292 237.032 253.736 236.363 254.181 235.729 254.625 235.128 255.069 234.562 255.514 234.029 255.958 233.529 256.402 233.062 256.847 232.628 257.291 232.226 257.735 231.855 258.18 231.517 258.624 231.209 259.068 230.932 259.513 230.686 259.957 230.47 260.401 230.284 260.846 230.127 261.29 230 261.734 229.901 262.179 229.831 262.623 229.79 263.067 229.776 263.511 229.79 263.956 229.831 264.4 229.898 264.844 229.993 265.289 230.113 265.733 230.26 266.177 230.432 266.622 230.63 267.066 230.852 267.51 231.099 267.955 231.37 268.399 231.665 268.843 231.983 269.288 232.325 269.732 232.69 270.176 233.078 270.621 233.487 271.065 233.919 271.509 234.372 271.954 234.847 272.398 235.342 272.842 235.858 273.287 236.395 273.731 236.951 274.175 237.527 274.62 238.122 275.064 238.736 275.508 239.369 275.953 240.02 276.397 240.689 276.841 241.376 277.286 242.08 277.73 242.801 278.174 243.538 278.619 244.292 279.063 245.062 279.507 245.848 279.952 246.649 280.396 247.465 280.84 248.295 281.285 249.14 281.729 249.999 282.173 250.872 282.618 251.757 283.062 252.656 283.506 253.568 283.951 254.492 284.395 255.428 284.839 256.375 285.284 257.334 285.728 258.304 286.172 259.285 286.617 260.276 287.061 261.277 287.505 262.288 287.95 263.308 288.394 264.337 288.838 265.375 289.283 266.422 289.727 267.476 290.171 268.538 290.616 269.608 291.06 270.684 291.504 271.767 291.949 272.857 292.393 273.953 292.837 275.054 293.281 276.161 293.726 277.273 294.17 278.389 294.614 279.51 295.059 280.635 295.503 281.764 295.947 282.896 296.392 284.032 296.836 285.17 297.28 286.31 297.725 287.453 298.169 288.598 298.613 289.743 299.058 290.89 299.502 292.038 299.946 293.186 300.391 294.334 300.835 295.482 301.279 296.63 301.724 297.777 302.168 298.922 302.612 300.066 303.057 301.208 303.501 302.347 303.945 303.485 304.39 304.619 304.834 305.75 305.278 306.878 305.723 308.002 306.167 309.121 306.611 310.236 307.056 311.347 307.544 312.562 307.989 313.661 308.433 314.754 308.877 315.841 309.322 316.921 309.766 317.995 310.21 319.061 310.655 320.12 311.099 321.171 311.543 322.213 311.988 323.247 312.432 324.273 312.876 325.289 313.321 326.295 313.765 327.292 314.209 328.279 314.654 329.255 315.098 330.22 315.542 331.174 315.987 332.117 316.431 333.048 316.875 333.966 317.32 334.873 317.764 335.766 318.208 336.646 318.653 337.513 319.097 338.366 319.541 339.204 319.986 340.028 320.43 340.838 320.874 341.632 321.319 342.411 321.763 343.174 322.207 343.921 322.652 344.652 323.096 345.365 323.54 346.062 323.985 346.741 324.429 347.402 324.873 348.045 325.318 348.67 325.762 349.276 326.206 349.863 326.651 350.43 327.095 350.978 327.539 351.506 327.984 352.013 328.428 352.499 328.872 352.965 329.317 353.409 329.761 353.831 330.205 354.231 330.65 354.608 331.094 354.963 331.538 355.295 331.982 355.604 332.427 355.888 332.871 356.149 333.315 356.385 333.76 356.597 334.204 356.783 334.648 356.944 335.093 357.08 335.537 357.189 335.981 357.272 336.426 357.328 336.87 357.357 337.314 357.359 337.759 357.333 338.203 357.28 338.647 357.197 339.092 357.086 339.536 356.946 339.98 356.777 340.425 356.578 340.869 356.349 341.313 356.089 341.758 355.799 342.202 355.478 342.646 355.126 343.091 354.742 343.535 354.326 343.979 353.877 344.424 353.396 344.868 352.882 345.312 352.335 345.757 351.754 346.201 351.139 346.645 350.489 347.09 349.805 347.534 349.086 347.978 348.332 348.423 347.542 348.867 346.716 349.311 345.854 349.756 344.955 350.2 344.019 350.644 343.046 351.089 342.035 351.533 340.987 351.977 339.9 352.422 338.774 352.866 337.61 353.31 336.406 353.755 335.163 354.199 333.879 354.643 332.556 355.088 331.191 355.532 329.786 355.976 328.34 356.421 326.852 356.865 325.322 357.309 323.75 357.754 322.135 358.198 320.477 358.642 318.777 359.087 317.032 359.531 315.244 359.975 313.411 360.42 311.534 360.864 309.612 361.308 307.644 361.752 305.632 362.197 303.573 362.641 301.468 363.085 299.316 363.53 297.118 363.974 294.872 364.418 292.579 364.863 290.238 365.307 287.849 365.751 285.411 366.196 282.924 366.64 280.388 367.084 277.803 367.529 275.168 367.973 272.482 368.417 269.746 368.862 266.96 369.306 264.122 369.75 261.232 370.195 258.291 370.639 255.297 371.083 252.251 371.528 249.152 371.972 246 372.416 242.795 372.861 239.535 373.305 236.222 373.749 232.854 374.194 229.431 374.638 225.953 375.082 222.42 375.527 218.83 375.971 215.185 376.415 211.483 376.86 207.725 377.304 203.909 377.748 200.035 378.193 196.104 378.637 192.115 379.081 188.067 379.526 183.961 379.97 179.795 380.414 175.57 380.859 171.286 381.303 166.941 381.747 162.535 382.192 158.069 382.636 153.542 383.08 148.953 383.525 144.303 383.969 139.59 384.413 134.816 385.177 126.456" fill="none"/></g></g></svg>