<svg width="375" height="76.9999" viewBox="35 218 375 77" xmlns="http://www.w3.org/2000/svg" xmlns:xlink="http://www.w3.org/1999/xlink" overflow="hidden"><defs></defs><g stroke="#000000" stroke-linecap="square" stroke-linejoin="bevel" fill="none" fill-rule="evenodd"><g stroke-opacity="0.00392157" font-family="MS Shell Dlg 2" font-weight="400" font-size="1.33333"><text stroke="none" fill="#000000" fill-opacity="0.00392157" font-size="1.33333" xml:space="preserve" x="35" y="223">FXID{6cf11f9f-5feb-4fde-8d84-83ad72161479}/FXID</text><text stroke="none" fill="#000000" fill-opacity="0.00392157" font-size="1.33333" xml:space="preserve" x="35" y="228">FXPRODUCTFX Draw/FXPRODUCT</text></g><g stroke-width="0.666667" font-family="Times New Roman" font-weight="400" font-size="16"><path d="M42 256.5 403 256.5"/></g><g stroke-width="0.666667" stroke-linecap="round" fill="#000000" font-family="Times New Roman" font-weight="400" font-size="16"><path d="M401 257.4 403 256.5" fill="none"/><path d="M401 255.6 403 256.5" fill="none"/></g><g stroke-width="0.666667" stroke-linecap="round" fill="#000000" font-family="Times New Roman" font-weight="400" font-size="16"><path d="M44 255.6 42 256.5" fill="none"/><path d="M44 257.4 42 256.5" fill="none"/></g><g stroke="#FF0000" stroke-width="2.66667" fill="#000000" font-family="Times New Roman" font-weight="400" font-size="16"><path d="M257.904 282.511 258.045 282.201 258.187 281.892 258.328 281.586 258.47 281.283 258.612 280.982 258.753 280.683 258.895 280.387 259.036 280.093 259.178 279.802 259.32 279.513 259.461 279.227 259.603 278.943 259.745 278.661 259.886 278.382 260.028 278.105 260.169 277.83 260.311 277.558 260.453 277.288 260.594 277.02 260.736 276.755 260.877 276.492 261.019 276.231 261.161 275.973 261.302 275.716 261.444 275.462 261.586 275.211 261.727 274.961 261.869 274.714 262.01 274.469 262.152 274.226 262.294 273.985 262.435 273.747 262.577 273.511 262.718 273.277 262.86 273.045 263.002 272.815 263.143 272.587 263.285 272.362 263.426 272.138 263.568 271.917 263.71 271.698 263.851 271.481 263.993 271.266 264.135 271.053 264.276 270.842 264.418 270.633 264.559 270.426 264.701 270.221 264.843 270.019 264.984 269.818 265.126 269.619 265.267 269.422 265.409 269.228 265.551 269.035 265.692 268.844 265.834 268.655 265.976 268.468 266.117 268.283 266.259 268.1 266.4 267.918 266.542 267.739 266.684 267.562 266.825 267.386 266.967 267.212 267.108 267.04 267.25 266.87 267.392 266.702 267.533 266.536 267.675 266.371 267.817 266.209 267.958 266.048 268.1 265.889 268.241 265.731 268.383 265.576 268.525 265.422 268.666 265.27 268.808 265.12 268.949 264.971 269.091 264.824 269.233 264.679 269.374 264.535 269.516 264.394 269.658 264.253 269.799 264.115 269.941 263.978 270.082 263.843 270.224 263.71 270.366 263.578 270.507 263.447 270.649 263.319 270.79 263.192 270.932 263.066 271.074 262.942 271.215 262.82 271.357 262.699 271.498 262.58 271.64 262.462 271.782 262.346 271.923 262.232 272.065 262.118 272.207 262.007 272.348 261.897 272.49 261.788 272.631 261.681 272.773 261.575 272.915 261.471 273.056 261.368 273.198 261.267 273.339 261.167 273.481 261.068 273.623 260.971 273.764 260.875 273.906 260.781 274.048 260.688 274.189 260.596 274.331 260.506 274.472 260.417 274.614 260.329 274.756 260.242 274.897 260.157 275.039 260.074 275.18 259.991 275.322 259.91 275.464 259.83 275.605 259.751 275.747 259.674 275.889 259.598 276.03 259.523 276.172 259.449 276.313 259.377 276.455 259.305 276.597 259.235 276.738 259.166 276.88 259.098 277.021 259.032 277.163 258.966 277.305 258.902 277.446 258.839 277.588 258.777 277.73 258.716 277.871 258.656 278.013 258.597 278.154 258.539 278.296 258.483 278.438 258.427 278.579 258.373 278.721 258.319 278.862 258.267 279.004 258.215 279.146 258.165 279.287 258.115 279.429 258.067 279.571 258.019 279.712 257.973 279.854 257.927 279.995 257.883 280.137 257.839 280.279 257.796 280.42 257.754 280.562 257.714 280.703 257.674 280.845 257.634 280.987 257.596 281.128 257.559 281.27 257.522 281.411 257.487 281.553 257.452 281.695 257.418 281.836 257.385 281.978 257.352 282.12 257.321 282.261 257.29 282.403 257.26 282.544 257.231 282.686 257.202 282.828 257.175 282.969 257.148 283.111 257.121 283.252 257.096 283.394 257.071 283.536 257.047 283.677 257.023 283.819 257.001 283.961 256.979 284.102 256.957 284.244 256.936 284.385 256.916 284.527 256.897 284.669 256.878 284.81 256.86 284.952 256.842 285.093 256.825 285.235 256.808 285.377 256.792 285.518 256.777 285.66 256.762 285.802 256.748 285.943 256.734 286.085 256.721 286.226 256.708 286.368 256.696 286.51 256.684 286.651 256.673 286.793 256.662 286.934 256.652 287.076 256.642 287.218 256.632 287.359 256.623 287.501 256.615 287.643 256.607 287.784 256.599 287.926 256.591 288.067 256.584 288.209 256.578 288.351 256.571 288.492 256.565 288.634 256.56 288.775 256.555 288.917 256.55 289.059 256.545 289.2 256.541 289.342 256.537 289.483 256.533 289.625 256.529 289.767 256.526 289.908 256.523 290.05 256.52 290.192 256.518 290.333 256.515 290.475 256.513 290.616 256.511 290.758 256.51 290.9 256.508 291.041 256.507 291.183 256.506 291.324 256.505 291.466 256.504 291.608 256.503 291.749 256.502 291.891 256.502 292.033 256.501 292.174 256.501 292.316 256.501 292.457 256.5 292.599 256.5 292.741 256.5 292.882 256.5 293.024 256.5 293.165 256.5 293.307 256.5 293.449 256.5 293.59 256.5 293.732 256.5 293.874 256.5 294.015 256.5 294.157 256.5 294.298 256.499 294.44 256.499 294.582 256.499 294.723 256.498 294.865 256.498 295.006 256.497 295.148 256.496 295.29 256.495 295.431 256.494 295.573 256.493 295.715 256.492 295.856 256.49 295.998 256.489 296.139 256.487 296.281 256.485 296.423 256.482 296.564 256.48 296.706 256.477 296.847 256.474 296.989 256.471 297.131 256.467 297.272 256.463 297.414 256.459 297.555 256.455 297.697 256.45 297.839 256.445 297.98 256.44 298.122 256.435 298.264 256.429 298.405 256.422 298.547 256.416 298.688 256.409 298.83 256.401 298.972 256.393 299.113 256.385 299.255 256.377 299.396 256.368 299.538 256.358 299.68 256.348 299.821 256.338 299.963 256.327 300.105 256.316 300.246 256.304 300.388 256.292 300.529 256.279 300.671 256.266 300.813 256.252 300.954 256.238 301.096 256.223 301.237 256.208 301.379 256.192 301.521 256.175 301.662 256.158 301.804 256.14 301.946 256.122 302.087 256.103 302.229 256.084 302.37 256.064 302.512 256.043 302.654 256.021 302.795 255.999 302.937 255.977 303.078 255.953 303.22 255.929 303.362 255.904 303.503 255.879 303.645 255.852 303.787 255.825 303.928 255.798 304.07 255.769 304.211 255.74 304.353 255.71 304.495 255.679 304.636 255.648 304.778 255.615 304.919 255.582 305.061 255.548 305.203 255.513 305.344 255.478 305.486 255.441 305.628 255.404 305.769 255.366 305.911 255.326 306.052 255.286 306.194 255.246 306.336 255.204 306.477 255.161 306.619 255.117 306.76 255.073 306.902 255.027 307.044 254.981 307.185 254.933 307.327 254.885 307.468 254.835 307.61 254.785 307.752 254.733 307.893 254.681 308.035 254.627 308.177 254.573 308.318 254.517 308.46 254.461 308.601 254.403 308.743 254.344 308.885 254.284 309.026 254.223 309.168 254.161 309.309 254.098 309.451 254.034 309.593 253.968 309.734 253.902 309.876 253.834 310.018 253.765 310.159 253.695 310.301 253.623 310.442 253.551 310.584 253.477 310.726 253.402 310.867 253.326 311.009 253.249 311.15 253.17 311.292 253.09 311.434 253.009 311.575 252.926 311.717 252.843 311.859 252.758 312 252.671 312.142 252.583 312.283 252.494 312.425 252.404 312.567 252.312 312.708 252.219 312.85 252.125 312.991 252.029 313.133 251.932 313.275 251.833 313.416 251.733 313.558 251.632 313.7 251.529 313.841 251.425 313.983 251.319 314.124 251.212 314.266 251.103 314.408 250.993 314.549 250.882 314.691 250.768 314.832 250.654 314.974 250.538 315.116 250.42 315.257 250.301 315.399 250.18 315.54 250.058 315.682 249.934 315.824 249.808 315.965 249.681 316.107 249.553 316.249 249.422 316.39 249.29 316.532 249.157 316.673 249.022 316.815 248.885 316.957 248.747 317.098 248.606 317.24 248.465 317.381 248.321 317.523 248.176 317.665 248.029 317.806 247.88 317.948 247.73 318.09 247.578 318.231 247.424 318.373 247.269 318.514 247.111 318.656 246.952 318.798 246.791 318.939 246.629 319.081 246.464 319.222 246.298 319.364 246.13 319.506 245.96 319.647 245.788 319.789 245.614 319.931 245.438 320.072 245.261 320.214 245.082 320.355 244.9 320.497 244.717 320.639 244.532 320.78 244.345 320.922 244.156 321.063 243.965 321.205 243.772 321.347 243.578 321.488 243.381 321.63 243.182 321.772 242.981 321.913 242.779 322.055 242.574 322.196 242.367 322.338 242.158 322.48 241.947 322.621 241.734 322.763 241.519 322.904 241.302 323.046 241.083 323.188 240.862 323.329 240.638 323.471 240.413 323.613 240.185 323.754 239.955 323.896 239.723 324.037 239.489 324.179 239.253 324.321 239.015 324.462 238.774 324.604 238.531 324.745 238.286 324.887 238.039 325.029 237.789 325.17 237.538 325.312 237.284 325.453 237.027 325.595 236.769 325.737 236.508 325.878 236.245 326.02 235.98 326.162 235.712 326.303 235.442 326.445 235.17 326.586 234.895 326.728 234.618 326.87 234.339 327.011 234.057 327.153 233.773 327.294 233.487 327.436 233.198 327.578 232.907 327.719 232.613 327.861 232.317 328.003 232.018 328.144 231.717 328.286 231.414 328.427 231.108 328.569 230.799 328.711 230.489" fill="none"/></g><g stroke="#FF00FF" stroke-width="2.66667" fill="#000000" font-family="Times New Roman" font-weight="400" font-size="16"><path d="M116.289 230.489 116.431 231.61 116.573 232.688 116.714 233.723 116.856 234.717 116.997 235.672 117.139 236.588 117.281 237.468 117.422 238.312 117.564 239.122 117.706 239.898 117.847 240.644 117.989 241.358 118.13 242.044 118.272 242.701 118.414 243.33 118.555 243.934 118.697 244.512 118.838 245.066 118.98 245.597 119.122 246.105 119.263 246.591 119.405 247.057 119.547 247.503 119.688 247.929 119.83 248.337 119.971 248.728 120.113 249.101 120.255 249.458 120.396 249.799 120.538 250.125 120.679 250.437 120.821 250.734 120.963 251.019 121.104 251.29 121.246 251.55 121.387 251.797 121.529 252.033 121.671 252.259 121.812 252.473 121.954 252.678 122.096 252.874 122.237 253.06 122.379 253.238 122.52 253.407 122.662 253.568 122.804 253.722 122.945 253.868 123.087 254.007 123.228 254.14 123.37 254.266 123.512 254.385 123.653 254.499 123.795 254.608 123.937 254.711 124.078 254.809 124.22 254.902 124.361 254.99 124.503 255.074 124.645 255.154 124.786 255.229 124.928 255.301 125.069 255.369 125.211 255.433 125.353 255.494 125.494 255.552 125.636 255.607 125.778 255.659 125.919 255.708 126.061 255.755 126.202 255.799 126.344 255.841 126.486 255.88 126.627 255.917 126.769 255.952 126.91 255.986 127.052 256.017 127.194 256.047 127.335 256.075 127.477 256.101 127.619 256.126 127.76 256.15 127.902 256.172 128.043 256.193 128.185 256.212 128.327 256.231 128.468 256.248 128.61 256.265 128.751 256.28 128.893 256.294 129.035 256.308 129.176 256.321 129.318 256.333 129.46 256.344 129.601 256.355 129.743 256.365 129.884 256.374 130.026 256.383 130.168 256.391 130.309 256.398 130.451 256.406 130.592 256.412 130.734 256.419 130.876 256.424 131.017 256.43 131.159 256.435 131.3 256.44 131.442 256.444 131.584 256.448 131.725 256.452 131.867 256.456 132.009 256.459 132.15 256.462 132.292 256.465 132.433 256.468 132.575 256.47 132.717 256.473 132.858 256.475 133 256.477 133.141 256.479 133.283 256.48 133.425 256.482 133.566 256.484 133.708 256.485 133.85 256.486 133.991 256.487 134.133 256.488 134.274 256.489 134.416 256.49 134.558 256.491 134.699 256.492 134.841 256.493 134.982 256.493 135.124 256.494 135.266 256.494 135.407 256.495 135.549 256.495 135.691 256.496 135.832 256.496 135.974 256.497 136.115 256.497 136.257 256.497 136.399 256.497 136.54 256.498 136.682 256.498 136.823 256.498 136.965 256.498 137.107 256.498 137.248 256.499 137.39 256.499 137.532 256.499 137.673 256.499 137.815 256.499 137.956 256.499 138.098 256.499 138.24 256.499 138.381 256.499 138.523 256.5 138.664 256.5 138.806 256.5 138.948 256.5 139.089 256.5 139.231 256.5 139.372 256.5 139.514 256.5 139.656 256.5 139.797 256.5 139.939 256.5 140.081 256.5 140.222 256.5 140.364 256.5 140.505 256.5 140.647 256.5 140.789 256.5 140.93 256.5 141.072 256.5 141.213 256.5 141.355 256.5 141.497 256.5 141.638 256.5 141.78 256.5 141.922 256.5 142.063 256.5 142.205 256.5 142.346 256.5 142.488 256.5 142.63 256.5 142.771 256.5 142.913 256.5 143.054 256.5 143.196 256.5 143.338 256.5 143.479 256.5 143.621 256.5 143.763 256.5 143.904 256.5 144.046 256.5 144.187 256.5 144.329 256.5 144.471 256.5 144.612 256.5 144.754 256.5 144.895 256.5 145.037 256.5 145.179 256.5 145.32 256.5 145.462 256.5 145.604 256.5 145.745 256.5 145.887 256.5 146.028 256.5 146.17 256.5 146.312 256.5 146.453 256.5 146.595 256.5 146.736 256.5 146.878 256.5 147.02 256.5 147.161 256.5 147.303 256.5 147.445 256.5 147.586 256.5 147.728 256.5 147.869 256.5 148.011 256.5 148.153 256.5 148.294 256.5 148.436 256.5 148.577 256.5 148.719 256.5 148.861 256.5 149.002 256.5 149.144 256.5 149.285 256.5 149.427 256.5 149.569 256.5 149.71 256.5 149.852 256.5 149.994 256.5 150.135 256.5 150.277 256.5 150.418 256.5 150.56 256.5 150.702 256.5 150.843 256.5 150.985 256.5 151.126 256.5 151.268 256.5 151.41 256.5 151.551 256.5 151.693 256.5 151.835 256.5 151.976 256.5 152.118 256.5 152.259 256.5 152.401 256.5 152.543 256.5 152.684 256.5 152.826 256.5 152.967 256.5 153.109 256.5 153.251 256.5 153.392 256.5 153.534 256.5 153.676 256.5 153.817 256.5 153.959 256.5 154.1 256.5 154.242 256.5 154.384 256.5 154.525 256.5 154.667 256.5 154.808 256.5 154.95 256.5 155.092 256.5 155.233 256.5 155.375 256.5 155.517 256.5 155.658 256.5 155.8 256.5 155.941 256.5 156.083 256.5 156.225 256.5 156.366 256.5 156.508 256.5 156.649 256.5 156.791 256.5 156.933 256.5 157.074 256.5 157.216 256.5 157.357 256.5 157.499 256.5 157.641 256.5 157.782 256.5 157.924 256.5 158.066 256.5 158.207 256.5 158.349 256.5 158.49 256.5 158.632 256.5 158.774 256.5 158.915 256.5 159.057 256.5 159.198 256.5 159.34 256.5 159.482 256.5 159.623 256.5 159.765 256.5 159.907 256.5 160.048 256.5 160.19 256.5 160.331 256.5 160.473 256.5 160.615 256.5 160.756 256.5 160.898 256.5 161.039 256.5 161.181 256.5 161.323 256.5 161.464 256.5 161.606 256.5 161.748 256.5 161.889 256.5 162.031 256.5 162.172 256.5 162.314 256.5 162.456 256.5 162.597 256.5 162.739 256.5 162.88 256.5 163.022 256.5 163.164 256.5 163.305 256.5 163.447 256.5 163.589 256.5 163.73 256.5 163.872 256.5 164.013 256.5 164.155 256.5 164.297 256.5 164.438 256.5 164.58 256.5 164.721 256.5 164.863 256.5 165.005 256.501 165.146 256.501 165.288 256.501 165.429 256.501 165.571 256.501 165.713 256.501 165.854 256.501 165.996 256.501 166.138 256.501 166.279 256.502 166.421 256.502 166.562 256.502 166.704 256.502 166.846 256.502 166.987 256.503 167.129 256.503 167.27 256.503 167.412 256.503 167.554 256.504 167.695 256.504 167.837 256.505 167.979 256.505 168.12 256.506 168.262 256.506 168.403 256.507 168.545 256.507 168.687 256.508 168.828 256.509 168.97 256.51 169.111 256.511 169.253 256.512 169.395 256.513 169.536 256.514 169.678 256.515 169.82 256.516 169.961 256.518 170.103 256.52 170.244 256.521 170.386 256.523 170.528 256.525 170.669 256.527 170.811 256.53 170.952 256.532 171.094 256.535 171.236 256.538 171.377 256.541 171.519 256.544 171.661 256.548 171.802 256.552 171.944 256.556 172.085 256.56 172.227 256.565 172.369 256.57 172.51 256.576 172.652 256.581 172.793 256.588 172.935 256.594 173.077 256.602 173.218 256.609 173.36 256.617 173.502 256.626 173.643 256.635 173.785 256.645 173.926 256.656 174.068 256.667 174.21 256.679 174.351 256.692 174.493 256.706 174.634 256.72 174.776 256.735 174.918 256.752 175.059 256.769 175.201 256.788 175.342 256.807 175.484 256.828 175.626 256.85 175.767 256.874 175.909 256.899 176.051 256.925 176.192 256.953 176.334 256.983 176.475 257.014 176.617 257.048 176.759 257.083 176.9 257.12 177.042 257.159 177.183 257.201 177.325 257.245 177.467 257.292 177.608 257.341 177.75 257.393 177.892 257.448 178.033 257.506 178.175 257.567 178.316 257.631 178.458 257.699 178.6 257.771 178.741 257.846 178.883 257.926 179.024 258.01 179.166 258.098 179.308 258.191 179.449 258.289 179.591 258.392 179.733 258.501 179.874 258.615 180.016 258.734 180.157 258.86 180.299 258.993 180.441 259.132 180.582 259.278 180.724 259.432 180.865 259.593 181.007 259.762 181.149 259.94 181.29 260.126 181.432 260.322 181.574 260.527 181.715 260.741 181.857 260.967 181.998 261.203 182.14 261.45 182.282 261.71 182.423 261.981 182.565 262.266 182.706 262.563 182.848 262.875 182.99 263.201 183.131 263.542 183.273 263.899 183.414 264.272 183.556 264.663 183.698 265.071 183.839 265.497 183.981 265.943 184.123 266.409 184.264 266.895 184.406 267.403 184.547 267.934 184.689 268.488 184.831 269.066 184.972 269.67 185.114 270.299 185.255 270.956 185.397 271.642 185.539 272.356 185.68 273.102 185.822 273.878 185.964 274.688 186.105 275.532 186.247 276.412 186.388 277.328 186.53 278.283 186.672 279.277 186.813 280.312 186.955 281.39 187.096 282.511" fill="none"/></g><g stroke="#FF0000" stroke-width="1.33333" stroke-linecap="round" fill="#FF0000" font-family="Times New Roman" font-weight="400" font-size="16"><circle cx="257.904" cy="282.511" r="5"/></g><g stroke="#FF0000" stroke-width="1.33333" stroke-linecap="round" fill="#FF0000" font-family="Times New Roman" font-weight="400" font-size="16"><circle cx="328.711" cy="230.489" r="5"/></g><g stroke="#FF00FF" stroke-width="1.33333" stroke-linecap="round" fill="#FF00FF" font-family="Times New Roman" font-weight="400" font-size="16"><circle cx="116.289" cy="230.489" r="5"/></g><g stroke="#FF00FF" stroke-width="1.33333" stroke-linecap="round" fill="#FF00FF" font-family="Times New Roman" font-weight="400" font-size="16"><circle cx="187.096" cy="282.511" r="5"/></g></g></svg>