<svg width="129" height="258" viewBox="269 118 129 258" xmlns="http://www.w3.org/2000/svg" xmlns:xlink="http://www.w3.org/1999/xlink" overflow="hidden"><defs></defs><g stroke="#000000" stroke-linecap="square" stroke-linejoin="bevel" fill="none" fill-rule="evenodd"><g stroke-opacity="0.00392157" font-family="MS Shell Dlg 2" font-weight="400" font-size="1.33333"><text stroke="none" fill="#000000" fill-opacity="0.00392157" font-size="1.33333" xml:space="preserve" x="269" y="123">FXID{c6fcc817-556d-4284-9243-04f838381b47}/FXID</text><text stroke="none" fill="#000000" fill-opacity="0.00392157" font-size="1.33333" xml:space="preserve" x="269" y="128">FXPRODUCTFX Draw/FXPRODUCT</text></g><g stroke="#0000FF" stroke-width="4" stroke-linecap="round" fill="#0000FF" font-family="Times New Roman" font-weight="400" font-size="16"><path d="M277.723 351.981 282.978 367.568 291.159 353.298 277.723 351.981"/></g><g stroke="#0000FF" stroke-width="4" stroke-linecap="round" fill="#0000FF" font-family="Times New Roman" font-weight="400" font-size="16"><path d="M389.332 141.919 383.609 126.498 375.863 141.009 389.332 141.919"/></g><g stroke="#0000FF" stroke-width="4" fill="#0000FF" font-family="Times New Roman" font-weight="400" font-size="16"><path d="M282.978 367.568 283.506 361.755 283.951 357.003 284.395 352.369 284.839 347.854 285.284 343.455 285.728 339.172 286.172 335.004 286.617 330.949 287.061 327.007 287.505 323.175 287.95 319.454 288.394 315.841 288.838 312.336 289.283 308.938 289.727 305.645 290.171 302.456 290.616 299.37 291.06 296.386 291.504 293.502 291.949 290.718 292.393 288.033 292.837 285.444 293.281 282.952 293.726 280.555 294.17 278.251 294.614 276.04 295.059 273.921 295.503 271.892 295.947 269.952 296.392 268.1 296.836 266.334 297.28 264.655 297.725 263.059 298.169 261.548 298.613 260.118 299.058 258.769 299.502 257.5 299.946 256.31 300.391 255.198 300.835 254.162 301.279 253.201 301.724 252.314 302.168 251.5 302.612 250.758 303.057 250.087 303.501 249.484 303.945 248.951 304.39 248.484 304.834 248.083 305.278 247.748 305.723 247.475 306.167 247.266 306.611 247.117 307.056 247.029 307.544 247 307.989 247.035 308.433 247.126 308.877 247.272 309.322 247.473 309.766 247.727 310.21 248.033 310.655 248.39 311.099 248.796 311.543 249.251 311.988 249.753 312.432 250.301 312.876 250.895 313.321 251.532 313.765 252.212 314.209 252.934 314.654 253.696 315.098 254.497 315.542 255.336 315.987 256.212 316.431 257.124 316.875 258.071 317.32 259.051 317.764 260.063 318.208 261.106 318.653 262.18 319.097 263.282 319.541 264.412 319.986 265.568 320.43 266.75 320.874 267.956 321.319 269.185 321.763 270.436 322.207 271.707 322.652 272.998 323.096 274.308 323.54 275.635 323.985 276.978 324.429 278.335 324.873 279.707 325.318 281.091 325.762 282.487 326.206 283.893 326.651 285.308 327.095 286.731 327.539 288.161 327.984 289.596 328.428 291.036 328.872 292.48 329.317 293.926 329.761 295.372 330.205 296.819 330.65 298.264 331.094 299.707 331.538 301.146 331.982 302.581 332.427 304.009 332.871 305.431 333.315 306.844 333.76 308.248 334.204 309.642 334.648 311.023 335.093 312.392 335.537 313.747 335.981 315.087 336.426 316.41 336.87 317.716 337.314 319.004 337.759 320.271 338.203 321.518 338.647 322.742 339.092 323.943 339.536 325.12 339.98 326.271 340.425 327.396 340.869 328.492 341.313 329.56 341.758 330.597 342.202 331.603 342.646 332.576 343.091 333.516 343.535 334.421 343.979 335.29 344.424 336.122 344.868 336.915 345.312 337.669 345.757 338.382 346.201 339.054 346.645 339.682 347.09 340.267 347.534 340.806 347.978 341.299 348.423 341.744 348.867 342.141 349.311 342.487 349.756 342.783 350.2 343.026 350.644 343.216 351.089 343.352 351.533 343.432 351.977 343.455 352.422 343.42 352.866 343.326 353.31 343.171 353.755 342.955 354.199 342.677 354.643 342.335 355.088 341.927 355.532 341.454 355.976 340.913 356.421 340.304 356.865 339.626 357.309 338.877 357.754 338.056 358.198 337.161 358.642 336.193 359.087 335.149 359.531 334.029 359.975 332.831 360.42 331.555 360.864 330.198 361.308 328.76 361.752 327.24 362.197 325.636 362.641 323.948 363.085 322.174 363.53 320.313 363.974 318.364 364.418 316.326 364.863 314.198 365.307 311.977 365.751 309.665 366.196 307.258 366.64 304.756 367.084 302.158 367.529 299.463 367.973 296.669 368.417 293.776 368.862 290.781 369.306 287.685 369.75 284.486 370.195 281.182 370.639 277.773 371.083 274.257 371.528 270.634 371.972 266.901 372.416 263.059 372.861 259.105 373.305 255.039 373.749 250.86 374.194 246.565 374.638 242.155 375.082 237.628 375.527 232.983 375.971 228.218 376.415 223.333 376.86 218.326 377.304 213.196 377.748 207.943 378.193 202.564 378.637 197.059 379.081 191.426 379.526 185.665 379.97 179.774 380.414 173.753 380.859 167.599 381.303 161.312 381.747 154.891 382.192 148.334 382.636 141.64 383.08 134.809 383.609 126.498" fill="none"/></g></g></svg>