<svg width="367" height="370" xmlns="http://www.w3.org/2000/svg" xmlns:xlink="http://www.w3.org/1999/xlink" xml:space="preserve" overflow="hidden"><defs><clipPath id="clip0"><rect x="386" y="264" width="367" height="370"/></clipPath></defs><g clip-path="url(#clip0)" transform="translate(-386 -264)"><path d="M0 0 0.000104987 277" stroke="#FFFFFF" stroke-linejoin="round" stroke-miterlimit="10" fill="none" fill-rule="evenodd" transform="matrix(1 0 0 -1 432.5 590.5)"/><path d="M0 0 0.000104987 276" stroke="#FFFFFF" stroke-linejoin="round" stroke-miterlimit="10" fill="none" fill-rule="evenodd" transform="matrix(1 0 0 -1 460.5 589.5)"/><path d="M0 0 0.000104987 276" stroke="#FFFFFF" stroke-linejoin="round" stroke-miterlimit="10" fill="none" fill-rule="evenodd" transform="matrix(1 0 0 -1 487.5 589.5)"/><path d="M0 0 0.000104987 276" stroke="#FFFFFF" stroke-linejoin="round" stroke-miterlimit="10" fill="none" fill-rule="evenodd" transform="matrix(1 0 0 -1 514.5 589.5)"/><path d="M0 0 0.000104987 276" stroke="#FFFFFF" stroke-linejoin="round" stroke-miterlimit="10" fill="none" fill-rule="evenodd" transform="matrix(1 0 0 -1 542.5 589.5)"/><path d="M0 0 0.000104987 276" stroke="#FFFFFF" stroke-linejoin="round" stroke-miterlimit="10" fill="none" fill-rule="evenodd" transform="matrix(1 0 0 -1 597.5 589.5)"/><path d="M0 0 0.000104987 276" stroke="#FFFFFF" stroke-linejoin="round" stroke-miterlimit="10" fill="none" fill-rule="evenodd" transform="matrix(1 0 0 -1 625.5 589.5)"/><path d="M0 0 0.000104987 276" stroke="#FFFFFF" stroke-linejoin="round" stroke-miterlimit="10" fill="none" fill-rule="evenodd" transform="matrix(1 0 0 -1 652.5 589.5)"/><path d="M0 0 0.000104987 276" stroke="#FFFFFF" stroke-linejoin="round" stroke-miterlimit="10" fill="none" fill-rule="evenodd" transform="matrix(1 0 0 -1 680.5 589.5)"/><path d="M0 0 0.000104987 277" stroke="#FFFFFF" stroke-linejoin="round" stroke-miterlimit="10" fill="none" fill-rule="evenodd" transform="matrix(1 0 0 -1 708.5 590.5)"/><path d="M432.5 589.5 708.5 589.5" stroke="#FFFFFF" stroke-linejoin="round" stroke-miterlimit="10" fill="none" fill-rule="evenodd"/><path d="M432.5 543.5 708.5 543.5" stroke="#FFFFFF" stroke-linejoin="round" stroke-miterlimit="10" fill="none" fill-rule="evenodd"/><path d="M432.5 497.5 708.5 497.5" stroke="#FFFFFF" stroke-linejoin="round" stroke-miterlimit="10" fill="none" fill-rule="evenodd"/><path d="M432.5 405.5 708.5 405.5" stroke="#FFFFFF" stroke-linejoin="round" stroke-miterlimit="10" fill="none" fill-rule="evenodd"/><path d="M432.5 359.5 708.5 359.5" stroke="#FFFFFF" stroke-linejoin="round" stroke-miterlimit="10" fill="none" fill-rule="evenodd"/><path d="M432.5 313.5 708.5 313.5" stroke="#FFFFFF" stroke-linejoin="round" stroke-miterlimit="10" fill="none" fill-rule="evenodd"/><path d="M420 447 415 450.981 420 456 420 450.981 420 447Z" fill-rule="evenodd"/><path d="M720 456 726 450.981 720 447 720 450.981 720 456Z" fill-rule="evenodd"/><path d="M416 451 724 451" stroke="#000000" stroke-width="1.83339" stroke-linejoin="round" stroke-miterlimit="10" fill="none" fill-rule="evenodd"/><path d="M566 601 569.981 607 575 601 569.981 601 566 601Z" fill-rule="evenodd"/><path d="M575 301 569.981 296 566 301 569.981 301 575 301Z" fill-rule="evenodd"/><path d="M0 0 0.000104987 309" stroke="#000000" stroke-width="1.83339" stroke-linejoin="round" stroke-miterlimit="10" fill="none" fill-rule="evenodd" transform="matrix(1 0 0 -1 570 605)"/><text font-family="Arial,Arial_MSFontService,Arial" font-weight="400" font-size="12" transform="translate(422.46 464)">-</text><text font-family="Arial,Arial_MSFontService,Arial" font-weight="400" font-size="12" transform="translate(426.46 464)">5</text><text font-family="Arial,Arial_MSFontService,Arial" font-weight="400" font-size="12" transform="translate(453.96 463)">-</text><text font-family="Arial,Arial_MSFontService,Arial" font-weight="400" font-size="12" transform="translate(457.96 463)">4</text><text font-family="Arial,Arial_MSFontService,Arial" font-weight="400" font-size="12" transform="translate(480.794 463)">-</text><text font-family="Arial,Arial_MSFontService,Arial" font-weight="400" font-size="12" transform="translate(484.794 463)">3</text><text font-family="Arial,Arial_MSFontService,Arial" font-weight="400" font-size="12" transform="translate(508.46 463)">-</text><text font-family="Arial,Arial_MSFontService,Arial" font-weight="400" font-size="12" transform="translate(512.46 463)">2</text><text font-family="Arial,Arial_MSFontService,Arial" font-weight="400" font-size="12" transform="translate(536.294 463)">-</text><text font-family="Arial,Arial_MSFontService,Arial" font-weight="400" font-size="12" transform="translate(540.294 463)">1</text><text font-family="Arial,Arial_MSFontService,Arial" font-weight="400" font-size="12" transform="translate(593.627 463)">1</text><text font-family="Arial,Arial_MSFontService,Arial" font-weight="400" font-size="12" transform="translate(621.46 463)">2</text><text font-family="Arial,Arial_MSFontService,Arial" font-weight="400" font-size="12" transform="translate(649.294 463)">3</text><text font-family="Arial,Arial_MSFontService,Arial" font-weight="400" font-size="12" transform="translate(675.96 463)">4</text><text font-family="Arial,Arial_MSFontService,Arial" font-weight="400" font-size="12" transform="translate(703.794 463)">5</text><text font-family="Arial,Arial_MSFontService,Arial" font-weight="400" font-size="12" transform="translate(547.794 592)">-</text><text font-family="Arial,Arial_MSFontService,Arial" font-weight="400" font-size="12" transform="translate(551.794 592)">30</text><text font-family="Arial,Arial_MSFontService,Arial" font-weight="400" font-size="12" transform="translate(547.794 546)">-</text><text font-family="Arial,Arial_MSFontService,Arial" font-weight="400" font-size="12" transform="translate(551.794 546)">20</text><text font-family="Arial,Arial_MSFontService,Arial" font-weight="400" font-size="12" transform="translate(547.794 500)">-</text><text font-family="Arial,Arial_MSFontService,Arial" font-weight="400" font-size="12" transform="translate(551.794 500)">10</text><text font-family="Arial,Arial_MSFontService,Arial" font-weight="400" font-size="12" transform="translate(552.46 408)">10</text><text font-family="Arial,Arial_MSFontService,Arial" font-weight="400" font-size="12" transform="translate(552.46 362)">20</text><text font-family="Arial,Arial_MSFontService,Arial" font-weight="400" font-size="12" transform="translate(552.46 316)">30</text><text font-family="Times New Roman,Times New Roman_MSFontService,Arial" font-style="italic" font-weight="400" font-size="23" transform="translate(722.96 478)">x</text><text font-family="Times New Roman,Times New Roman_MSFontService,Arial" font-style="italic" font-weight="400" font-size="23" transform="translate(551.627 294)">y</text></g></svg>