<svg width="452.001" height="194" viewBox="151 98 452 194" xmlns="http://www.w3.org/2000/svg" xmlns:xlink="http://www.w3.org/1999/xlink" overflow="hidden"><defs></defs><g stroke="#000000" stroke-linecap="square" stroke-linejoin="bevel" fill="none" fill-rule="evenodd"><g stroke-opacity="0.00392157" font-family="MS Shell Dlg 2" font-weight="400" font-size="1.33333"><text stroke="none" fill="#000000" fill-opacity="0.00392157" font-size="1.33333" xml:space="preserve" x="151" y="103">FXID{75fcb5f1-daed-401c-9a11-f8a3a2f08152}/FXID</text><text stroke="none" fill="#000000" fill-opacity="0.00392157" font-size="1.33333" xml:space="preserve" x="151" y="108">FXPRODUCTFX Draw/FXPRODUCT</text></g><g stroke="#0000FF" stroke-width="4" stroke-linecap="round" fill="#0000FF" font-family="Times New Roman" font-weight="400" font-size="16"><path d="M593.441 123.904 593.887 107.462 581.285 118.032 593.441 123.904" stroke="#FF0000"/></g><g stroke="#0000FF" stroke-width="4" fill="#0000FF" font-family="Times New Roman" font-weight="400" font-size="16"><path d="M159.522 277.126 160.608 277.117 161.694 277.107 162.78 277.098 163.866 277.088 164.951 277.078 166.037 277.068 167.123 277.058 168.209 277.048 169.295 277.037 170.381 277.027 171.467 277.016 172.553 277.005 173.639 276.994 174.725 276.983 175.811 276.972 176.896 276.961 177.982 276.949 179.068 276.937 180.154 276.925 181.24 276.913 182.326 276.901 183.412 276.889 184.498 276.876 185.584 276.863 186.67 276.85 187.756 276.837 188.842 276.824 189.927 276.81 191.013 276.797 192.099 276.783 193.185 276.769 194.271 276.754 195.357 276.74 196.443 276.725 197.529 276.71 198.615 276.695 199.701 276.68 200.787 276.664 201.872 276.649 202.958 276.633 204.044 276.617 205.13 276.6 206.216 276.584 207.302 276.567 208.388 276.55 209.474 276.532 210.56 276.515 211.646 276.497 212.732 276.479 213.818 276.461 214.903 276.442 215.989 276.423 217.075 276.404 218.161 276.385 219.247 276.365 220.333 276.345 221.419 276.325 222.505 276.304 223.591 276.284 224.677 276.263 225.763 276.241 226.848 276.22 227.934 276.198 229.02 276.175 230.106 276.153 231.192 276.13 232.278 276.107 233.364 276.083 234.45 276.06 235.536 276.035 236.622 276.011 237.708 275.986 238.793 275.961 239.879 275.935 240.965 275.909 242.051 275.883 243.137 275.856 244.223 275.829 245.309 275.802 246.395 275.774 247.481 275.746 248.567 275.718 249.653 275.689 250.739 275.659 251.824 275.629 252.91 275.599 253.996 275.569 255.082 275.538 256.168 275.506 257.254 275.474 258.34 275.442 259.426 275.409 260.512 275.376 261.598 275.342 262.684 275.308 263.769 275.273 264.855 275.238 265.941 275.203 267.027 275.166 268.113 275.13 269.199 275.093 270.285 275.055 271.371 275.017 272.457 274.978 273.543 274.939 274.629 274.899 275.715 274.859 276.8 274.818 277.886 274.776 278.972 274.734 280.058 274.691 281.144 274.648 282.23 274.604 283.316 274.56 284.402 274.515 285.488 274.469 286.574 274.423 287.66 274.375 288.745 274.328 289.831 274.279 290.917 274.23 292.003 274.181 293.089 274.13 294.175 274.079 295.261 274.027 296.347 273.975 297.433 273.922 298.519 273.868 299.605 273.813 300.691 273.757 301.776 273.701 302.862 273.644 303.948 273.586 305.034 273.527 306.12 273.468 307.206 273.407 308.292 273.346 309.378 273.284 310.464 273.221 311.55 273.157 312.636 273.093 313.721 273.027 314.807 272.961 315.893 272.893 316.979 272.825 318.065 272.756 319.151 272.685 320.237 272.614 321.323 272.542 322.409 272.468 323.495 272.394 324.581 272.319 325.666 272.242 326.752 272.165 327.838 272.086 328.924 272.007 330.01 271.926 331.096 271.844 332.182 271.761 333.268 271.677 334.354 271.592 335.44 271.505 336.526 271.417 337.612 271.328 338.697 271.238 339.783 271.147 340.869 271.054 341.955 270.96 343.041 270.864 344.127 270.768 345.213 270.67 346.299 270.57 347.385 270.469 348.471 270.367 349.557 270.264 350.642 270.159 351.728 270.052 352.814 269.944 353.9 269.834 354.986 269.723 356.072 269.611 357.158 269.497 358.244 269.381 359.33 269.263 360.416 269.144 361.502 269.024 362.588 268.901 363.673 268.777 364.759 268.651 365.845 268.524 366.931 268.394 368.017 268.263 369.103 268.13 370.189 267.995 371.275 267.859 372.361 267.72 373.447 267.579 374.533 267.437 375.618 267.292 376.704 267.146 377.79 266.997 378.876 266.846 379.962 266.694 381.048 266.539 382.134 266.382 383.22 266.222 384.306 266.061 385.392 265.897 386.478 265.731 387.564 265.563 388.649 265.392 389.735 265.219 390.821 265.043 391.907 264.865 392.993 264.685 394.079 264.502 395.165 264.316 396.251 264.128 397.337 263.938 398.423 263.744 399.509 263.548 400.594 263.349 401.68 263.148 402.766 262.943 403.852 262.736 404.938 262.526 406.024 262.313 407.11 262.097 408.196 261.878 409.282 261.655 410.368 261.43 411.454 261.202 412.539 260.97 413.625 260.735 414.711 260.497 415.797 260.256 416.883 260.011 417.969 259.763 419.055 259.511 420.141 259.256 421.227 258.997 422.313 258.735 423.399 258.469 424.485 258.199 425.57 257.926 426.656 257.648 427.742 257.367 428.828 257.082 429.914 256.793 431.109 256.47 432.195 256.173 433.28 255.871 434.366 255.565 435.452 255.255 436.538 254.94 437.624 254.621 438.71 254.298 439.796 253.97 440.882 253.637 441.968 253.3 443.054 252.958 444.14 252.612 445.225 252.26 446.311 251.904 447.397 251.542 448.483 251.176 449.569 250.804 450.655 250.428 451.741 250.046 452.827 249.658 453.913 249.266 454.999 248.867 456.085 248.464 457.17 248.054 458.256 247.639 459.342 247.218 460.428 246.791 461.514 246.359 462.6 245.92 463.686 245.475 464.772 245.024 465.858 244.566 466.944 244.103 468.03 243.632 469.116 243.156 470.201 242.672 471.287 242.182 472.373 241.685 473.459 241.181 474.545 240.67 475.631 240.151 476.717 239.626 477.803 239.093 478.889 238.553 479.975 238.005 481.061 237.45 482.146 236.887 483.232 236.316 484.318 235.737 485.404 235.15 486.49 234.554 487.576 233.951 488.662 233.339 489.748 232.718 490.834 232.089 491.92 231.451 493.006 230.804 494.092 230.148 495.177 229.483 496.263 228.809 497.349 228.125 498.435 227.432 499.521 226.729 500.607 226.016 501.693 225.293 502.779 224.561 503.865 223.817 504.951 223.064 506.037 222.3 507.122 221.525 508.208 220.74 509.294 219.944 510.38 219.136 511.466 218.317 512.552 217.487 513.638 216.645 514.724 215.792 515.81 214.926 516.896 214.049 517.982 213.159 519.068 212.257 520.153 211.342 521.239 210.414 522.325 209.474 523.411 208.52 524.497 207.553 525.583 206.572 526.669 205.578 527.755 204.57 528.841 203.548 529.927 202.512 531.013 201.461 532.098 200.395 533.184 199.315 534.27 198.219 535.356 197.109 536.442 195.982 537.528 194.84 538.614 193.682 539.7 192.508 540.786 191.318 541.872 190.111 542.958 188.887 544.043 187.646 545.129 186.387 546.215 185.111 547.301 183.817 548.387 182.506 549.473 181.175 550.559 179.827 551.645 178.459 552.731 177.073 553.817 175.667 554.903 174.241 555.989 172.796 557.074 171.33 558.16 169.844 559.246 168.337 560.332 166.809 561.418 165.26 562.504 163.689 563.59 162.096 564.676 160.481 565.762 158.843 566.848 157.183 567.934 155.499 569.019 153.792 570.105 152.061 571.191 150.306 572.277 148.526 573.363 146.722 574.449 144.892 575.535 143.037 576.621 141.156 577.707 139.249 578.793 137.315 579.879 135.354 580.965 133.365 582.05 131.349 583.136 129.305 584.222 127.232 585.308 125.13 586.394 122.999 587.48 120.839 588.566 118.648 589.652 116.426 590.738 114.173 591.824 111.889 593.887 107.462" stroke="#FF0000" fill="none"/></g><g stroke="#0000FF" stroke-width="4" stroke-linecap="round" fill="#0000FF" font-family="Times New Roman" font-weight="400" font-size="16"><path d="M174.461 270.242 159.522 277.126 174.582 283.742 174.461 270.242" stroke="#FF0000"/></g></g></svg>